<svg width="36" height="36" viewBox="0 0 36 36" fill="none" xmlns="http://www.w3.org/2000/svg">
<path d="M30.1018 7.83107L30.1019 7.83116L35.7163 13.4456C35.9746 13.7039 35.9745 14.1227 35.7163 14.3809L35.6456 14.3102L35.7163 14.3809L31.2247 18.8725L31.2247 18.8725C30.9664 19.1308 30.5477 19.1308 30.2894 18.8725L30.2894 18.8725L29.1728 17.7558V30.7567V30.8567H29.1611C29.1414 30.9944 29.0783 31.1232 28.9796 31.2237L28.979 31.2243L24.4874 35.7159C24.3634 35.8399 24.1952 35.9097 24.0197 35.9097H3.80789H3.8076V35.8097C2.9149 35.8122 2.07448 35.3887 1.54532 34.6697L1.46478 34.729C0.542172 33.4753 0.777624 31.7251 1.97663 30.7569C1.77973 30.5987 1.60434 30.4151 1.4551 30.2108C0.542357 28.9617 0.78208 27.2233 1.97662 26.2649C1.29567 25.7143 0.898154 24.883 0.900715 24.0026C0.905367 22.4016 2.20692 21.1075 3.80789 21.1121M30.1018 7.83107L3.8076 21.2121M30.1018 7.83107C30.0066 7.73617 29.8848 7.67251 29.7526 7.64853L29.7347 7.74691M30.1018 7.83107L29.7525 7.64852M3.80789 21.1121L3.8076 21.2121M3.80789 21.1121H3.8076V21.2121M3.80789 21.1121H7.63774M3.8076 21.2121H7.63774V21.1121M7.63774 21.1121H7.73774V17.6558L7.63774 17.7558M7.63774 21.1121V17.7558M7.63774 17.7558L6.52105 18.8725L6.52104 18.8725C6.26274 19.1308 5.84405 19.1308 5.58575 18.8725L5.58574 18.8725L1.09416 14.3809L1.09415 14.3809C0.835933 14.1226 0.835933 13.7039 1.09415 13.4457L1.09416 13.4456L6.70863 7.83116L6.70873 7.83107C6.80389 7.73615 6.92568 7.67249 7.05796 7.64852M7.63774 17.7558V17.6144L6.45034 18.8018C6.23109 19.021 5.8757 19.021 5.65645 18.8018L1.16487 14.3102C0.945693 14.091 0.945693 13.7356 1.16487 13.5164L6.77935 7.90187C6.86012 7.82131 6.9635 7.76727 7.07579 7.74691M7.05796 7.64852L30.0311 7.90187C29.9504 7.82131 29.847 7.76727 29.7347 7.74691M7.05796 7.64852L13.2326 6.52587L13.2517 6.62402M7.05796 7.64852L7.07579 7.74691M7.05796 7.64852L7.0579 7.64853L7.07579 7.74691M7.05796 7.64852L13.2332 6.52574L13.2338 6.52563L13.2517 6.62402M7.07579 7.74691L13.2517 6.62402M13.2517 6.62402C13.4155 6.59209 13.585 6.63651 13.7121 6.74473C13.8399 6.85148 13.9137 7.00938 13.9137 7.17592M13.9137 7.17592C13.915 7.32085 13.9258 7.46549 13.9459 7.60896L14.0435 7.58456M13.9137 7.17592L14.0137 7.17502C14.0137 7.17519 14.0137 7.17537 14.0137 7.17554M13.9137 7.17592L14.0137 7.17596C14.0137 7.17582 14.0137 7.17568 14.0137 7.17554M14.0435 7.58456C14.048 7.61772 14.0531 7.65082 14.0587 7.68385L17.8438 6.73743M14.0435 7.58456L17.7438 6.65936M14.0435 7.58456C14.0249 7.449 14.0149 7.31239 14.0137 7.17554M17.8438 6.73743V6.05303C17.8438 5.74297 18.0952 5.49158 18.4052 5.49158C19.3355 5.49158 20.0896 4.73748 20.0896 3.80724C20.0896 2.87699 19.3355 2.12289 18.4052 2.12289C17.475 2.12289 16.7209 2.87699 16.7209 3.80724H16.6209H15.698C15.698 3.80724 15.698 3.80725 15.698 3.80726L15.598 3.80724V3.70724H15.5998C15.6456 2.41634 16.5697 1.31733 17.8438 1.05726C19.3629 0.747205 20.8457 1.72728 21.1558 3.24635C21.4658 4.76542 20.4858 6.24827 18.9667 6.55833M17.8438 6.73743L17.8195 6.64042L17.7438 6.65936M17.8438 6.73743H17.7438V6.65936M18.9667 6.55833V6.73799M18.9667 6.55833L18.9867 6.65631C18.9868 6.65628 18.987 6.65625 18.9871 6.65622L18.9667 6.73799M18.9667 6.55833H19.0667V6.63883M18.9667 6.73799L22.7518 7.68386C22.7574 7.65084 22.7624 7.61774 22.767 7.58458M18.9667 6.73799H19.0667V6.65991M22.767 7.58458L22.8646 7.60896C22.8847 7.46549 22.8955 7.32085 22.8968 7.17592M22.767 7.58458L19.0667 6.65991M22.767 7.58458C22.7856 7.44884 22.7956 7.31205 22.7968 7.17502L22.8968 7.17592M22.8968 7.17592C22.8968 7.14238 22.8998 7.1089 22.9059 7.07591M22.8968 7.17592L19.0667 6.65991M22.9059 7.07591C22.9614 6.77084 23.2537 6.56851 23.5588 6.62402L29.7347 7.74691M22.9059 7.07591L22.8075 7.05801C22.8729 6.69861 23.2173 6.46023 23.5767 6.52563L29.7525 7.64852M22.9059 7.07591L29.7525 7.64852M29.7347 7.74691L29.7525 7.64852M29.0728 30.6567V30.7566V30.6567ZM29.0728 30.6567V17.6558V30.6567ZM19.0667 6.65991L19.0223 6.64881C19.0371 6.64559 19.0519 6.64226 19.0667 6.63883M19.0667 6.65991V6.63883M19.0667 6.65991L13.7766 6.66829C13.9268 6.79395 14.0136 6.97966 14.0137 7.17554M19.0667 6.63883C20.5941 6.28281 21.5694 4.7727 21.2538 3.22635C20.9327 1.65317 19.397 0.638181 17.8238 0.959285L17.8438 1.05723L17.8238 0.959285C16.4704 1.23555 15.4983 2.42592 15.498 3.80721L15.498 3.90724H15.598H16.7209H16.8209V3.80724C16.8209 2.93222 17.5302 2.22289 18.4052 2.22289C19.2803 2.22289 19.9896 2.93222 19.9896 3.80724C19.9896 4.68226 19.2803 5.39158 18.4052 5.39158C18.04 5.39158 17.7438 5.68774 17.7438 6.05303V6.65936M30.7571 17.4696L27.2946 14.0071L27.2239 13.9364L27.1532 14.0071L26.3593 14.801L26.2886 14.8717L26.3593 14.9424L27.8499 16.4329V30.0953H24.0197C23.6544 30.0953 23.3583 30.3914 23.3583 30.7567V34.5869H18.5856C19.4069 33.3581 19.1594 31.6909 17.9937 30.7566C19.1878 29.7981 19.4274 28.06 18.5148 26.811C18.3656 26.6067 18.1902 26.4231 17.9932 26.2649C19.1923 25.2967 19.4278 23.5465 18.5051 22.2928C17.9565 21.5473 17.0849 21.1087 16.1595 21.1121C16.1593 21.1121 16.1592 21.1121 16.1591 21.1121L30.7571 17.4696ZM30.7571 17.4696L34.3134 13.9133L29.3105 8.91264L30.7571 17.4696ZM30.3601 18.8018C30.5794 19.021 30.9348 19.021 31.154 18.8018H30.3601ZM2.05797 26.2019C2.08508 26.2234 2.11265 26.2445 2.14066 26.2651C2.11253 26.2857 2.08488 26.3067 2.05775 26.3281L2.05797 26.2019ZM1.53584 30.1518C1.68457 30.3554 1.86018 30.5376 2.05777 30.6937L1.53584 30.1518ZM28.9082 31.1536C29.0089 31.0512 29.0659 30.9141 29.0677 30.7709L28.9082 31.1536ZM18.4024 10.9359C16.812 10.9817 15.3204 10.181 14.4783 8.83904L18.4052 7.85729L22.3322 8.83904C21.4901 10.181 19.9985 10.9817 18.4081 10.9359L18.4081 10.9358L18.4024 10.9359ZM2.22326 24.0194C2.22326 23.1443 2.93258 22.435 3.8076 22.435H16.1595C17.0345 22.435 17.7438 23.1443 17.7438 24.0194C17.7438 24.8944 17.0345 25.6037 16.1595 25.6037H3.8076C2.93259 25.6037 2.22326 24.8943 2.22326 24.0194ZM2.22326 28.5109C2.22326 27.6359 2.93258 26.9266 3.8076 26.9266H16.1595C17.0345 26.9266 17.7438 27.6359 17.7438 28.5109C17.7438 29.386 17.0345 30.0953 16.1595 30.0953H3.8076C2.93258 30.0953 2.22326 29.3859 2.22326 28.5109ZM16.1595 34.5869H15.0366H3.8076C2.93258 34.5869 2.22326 33.8775 2.22326 33.0025C2.22326 32.1275 2.93258 31.4182 3.8076 31.4182H16.1595C17.0345 31.4182 17.7438 32.1275 17.7438 33.0025C17.7438 33.8775 17.0345 34.5869 16.1595 34.5869ZM26.9145 31.4182L24.6812 33.6516V31.4182H26.9145Z" fill="black" stroke="black" stroke-width="0.2"/>
<path d="M16.8211 23.4579V23.3579H16.7211H3.24634H3.14634V23.4579V24.5808V24.6808H3.24634H16.7211H16.8211V24.5808V23.4579Z" fill="black" stroke="black" stroke-width="0.2"/>
<path d="M16.2596 27.9495V27.8495H16.1596H3.24634H3.14634V27.9495V29.0724V29.1724H3.24634H16.1596H16.2596V29.0724V27.9495Z" fill="black" stroke="black" stroke-width="0.2"/>
<path d="M16.2596 32.4411V32.3411H16.1596H3.24634H3.14634V32.4411V33.564V33.664H3.24634H16.1596H16.2596V33.564V32.4411Z" fill="black" stroke="black" stroke-width="0.2"/>
</svg>
