<svg width="35" height="24" viewBox="0 0 35 24" fill="none" xmlns="http://www.w3.org/2000/svg">
<path d="M31.7505 0H3.05947C1.37248 0 0 1.37248 0 3.05947V20.7896C0 22.4766 1.37248 23.8491 3.05947 23.8491H31.7505C33.4375 23.8491 34.81 22.4766 34.81 20.7896V3.05947C34.81 1.37248 33.4375 0 31.7505 0ZM31.3512 2.03965L30.9429 2.37966L18.6189 12.6419C17.9155 13.2275 16.8944 13.2275 16.1911 12.6419L3.86711 2.37966L3.45877 2.03965H31.3512ZM2.03965 3.51214L12.081 11.8735L2.03965 18.5563V3.51214ZM31.7505 21.8094H3.05947C2.56669 21.8094 2.15455 21.4581 2.06011 20.9928L13.7164 13.2353L14.886 14.2093C15.6158 14.817 16.5105 15.1208 17.4051 15.1208C18.2997 15.1208 19.1942 14.817 19.9241 14.2093L21.0938 13.2353L32.75 20.9927C32.6555 21.4581 32.2433 21.8094 31.7505 21.8094ZM32.7704 18.5563L22.729 11.8736L32.7704 3.51214V18.5563Z" fill="black"/>
</svg>
