<svg width="32" height="32" viewBox="0 0 32 32" fill="none" xmlns="http://www.w3.org/2000/svg">
<path d="M13.3332 32C10.7598 32 8.6665 29.9067 8.6665 27.3334C8.6665 26.9654 8.96517 26.6667 9.33317 26.6667C9.70117 26.6667 9.99984 26.9654 9.99984 27.3334C9.99984 29.1707 11.4945 30.6667 13.3332 30.6667C15.1718 30.6667 16.6665 29.1707 16.6665 27.3334C16.6665 26.9654 16.9652 26.6667 17.3332 26.6667C17.7012 26.6667 17.9998 26.9654 17.9998 27.3334C17.9998 29.9067 15.9065 32 13.3332 32Z" fill="black"/>
<path d="M24.6667 28H2C0.897334 28 0 27.1027 0 26C0 25.4147 0.254667 24.8614 0.698667 24.48C0.726667 24.456 0.757334 24.4347 0.788 24.416C2.83067 22.6427 4 20.0867 4 17.3867V13.3333C4 8.94401 7.116 5.10268 11.4107 4.20135C11.7667 4.12668 12.1227 4.35601 12.2 4.71735C12.276 5.07735 12.0453 5.43068 11.684 5.50668C8.004 6.27868 5.33333 9.57068 5.33333 13.3333V17.3867C5.33333 20.5107 3.96533 23.4654 1.58 25.4947C1.55867 25.512 1.53733 25.5294 1.51333 25.544C1.39867 25.6667 1.33333 25.8294 1.33333 26C1.33333 26.368 1.63333 26.6667 2 26.6667H24.6667C25.0333 26.6667 25.3333 26.368 25.3333 26C25.3333 25.8294 25.268 25.6653 25.1507 25.5427C25.1293 25.528 25.1093 25.5133 25.0893 25.4973C23.848 24.4507 22.8773 23.14 22.2027 21.6014C22.056 21.264 22.2093 20.8707 22.5467 20.7227C22.88 20.58 23.2773 20.728 23.424 21.0653C24.004 22.3867 24.8293 23.5133 25.88 24.4187C25.9107 24.4373 25.94 24.4574 25.9667 24.48C26.412 24.8614 26.6667 25.4147 26.6667 26C26.6667 27.1027 25.7693 28 24.6667 28Z" fill="black"/>
<path d="M23.3332 17.3333C18.5545 17.3333 14.6665 13.4453 14.6665 8.66667C14.6665 3.888 18.5545 0 23.3332 0C28.1118 0 31.9998 3.888 31.9998 8.66667C31.9998 13.4453 28.1118 17.3333 23.3332 17.3333ZM23.3332 1.33333C19.2905 1.33333 15.9998 4.62267 15.9998 8.66667C15.9998 12.7107 19.2905 16 23.3332 16C27.3758 16 30.6665 12.7107 30.6665 8.66667C30.6665 4.62267 27.3758 1.33333 23.3332 1.33333Z" fill="#E20000"/>
<circle cx="23" cy="9" r="8" fill="#E20000"/>
</svg>
