<svg width="35" height="35" viewBox="0 0 35 35" fill="none" xmlns="http://www.w3.org/2000/svg">
<path d="M18.4973 34.81H16.3126C14.5457 34.81 13.1081 33.3725 13.1081 31.6055V30.8664C12.3569 30.6264 11.627 30.3235 10.9259 29.9606L10.4021 30.4844C9.13348 31.7545 7.10138 31.7173 5.86963 30.4839L4.32555 28.9399C3.09163 27.7073 3.05614 25.6759 4.32596 24.4075L4.84933 23.8841C4.48648 23.1829 4.18359 22.4532 3.94352 21.7019H3.20449C1.43761 21.7019 0 20.2643 0 18.4974V16.3126C0 14.5457 1.43761 13.1081 3.20456 13.1081H3.94359C4.18366 12.3569 4.48655 11.6271 4.8494 10.9259L4.32562 10.4022C3.05655 9.1345 3.09156 7.10287 4.32603 5.86977L5.87024 4.32562C7.10484 3.08932 9.13647 3.05845 10.4026 4.32603L10.9259 4.84933C11.6271 4.48655 12.3569 4.18359 13.1081 3.94352V3.20449C13.1081 1.43754 14.5457 0 16.3127 0H18.4974C20.2643 0 21.7019 1.43754 21.7019 3.20449V3.94359C22.4531 4.18359 23.1829 4.48655 23.8841 4.8494L24.4079 4.32562C25.6765 3.05546 27.7086 3.09272 28.9403 4.32609L30.4844 5.87011C31.7183 7.10267 31.7538 9.13409 30.484 10.4025L29.9606 10.9259C30.3235 11.6271 30.6263 12.3568 30.8664 13.1081H31.6054C33.3724 13.1081 34.81 14.5457 34.81 16.3126V18.4974C34.81 20.2643 33.3724 21.7019 31.6054 21.7019H30.8664C30.6263 22.4531 30.3235 23.1829 29.9606 23.8841L30.4844 24.4079C31.7535 25.6756 31.7184 27.7072 30.484 28.9403L28.9398 30.4844C27.7052 31.7207 25.6735 31.7516 24.4074 30.484L23.8841 29.9607C23.1829 30.3235 22.4531 30.6265 21.7019 30.8665V31.6056C21.7019 33.3725 20.2643 34.81 18.4973 34.81ZM11.2668 27.8188C12.2409 28.3948 13.2893 28.83 14.3828 29.1122C14.8331 29.2284 15.1478 29.6346 15.1478 30.0997V31.6055C15.1478 32.2478 15.6704 32.7704 16.3127 32.7704H18.4974C19.1397 32.7704 19.6623 32.2478 19.6623 31.6055V30.0997C19.6623 29.6346 19.9769 29.2284 20.4273 29.1122C21.5208 28.83 22.5692 28.3948 23.5433 27.8188C23.944 27.5818 24.4543 27.6462 24.7836 27.9755L25.8502 29.0421C26.31 29.5026 27.0485 29.4919 27.4971 29.0426L29.0423 27.4975C29.4898 27.0506 29.5047 26.3119 29.0427 25.8505L27.9756 24.7834C27.6464 24.4542 27.582 23.9439 27.8189 23.5432C28.395 22.5692 28.8301 21.5208 29.1123 20.4272C29.2286 19.9769 29.6347 19.6623 30.0998 19.6623H31.6055C32.2478 19.6623 32.7704 19.1397 32.7704 18.4974V16.3127C32.7704 15.6704 32.2478 15.1479 31.6055 15.1479H30.0998C29.6347 15.1479 29.2286 14.8332 29.1123 14.3829C28.8301 13.2893 28.3949 12.241 27.8189 11.2669C27.582 10.8662 27.6464 10.3559 27.9756 10.0267L29.0423 8.96004C29.5034 8.49949 29.4913 7.76113 29.0427 7.31302L27.4977 5.76799C27.0498 5.31954 26.3112 5.30642 25.8506 5.76758L24.7836 6.83466C24.4544 7.16393 23.944 7.22838 23.5433 6.99137C22.5693 6.41531 21.5209 5.98011 20.4274 5.69789C19.977 5.5817 19.6623 5.17554 19.6623 4.71043V3.20449C19.6623 2.56221 19.1397 2.03965 18.4974 2.03965H16.3128C15.6705 2.03965 15.1479 2.56221 15.1479 3.20449V4.7103C15.1479 5.1754 14.8332 5.58157 14.3829 5.69776C13.2893 5.97998 12.241 6.41517 11.2669 6.99124C10.866 7.22817 10.3558 7.16372 10.0266 6.83452L8.95997 5.76785C8.5001 5.30744 7.76154 5.31811 7.31302 5.76738L5.76785 7.31248C5.32035 7.75943 5.3054 8.49799 5.76745 8.9595L6.83452 10.0266C7.16372 10.3558 7.22817 10.8661 6.99124 11.2668C6.41517 12.2408 5.98005 13.2892 5.69783 14.3828C5.58157 14.8331 5.1754 15.1477 4.71036 15.1477H3.20456C2.56227 15.1478 2.03965 15.6703 2.03965 16.3126V18.4974C2.03965 19.1397 2.56227 19.6622 3.20456 19.6622H4.7103C5.1754 19.6622 5.5815 19.9769 5.69776 20.4271C5.97998 21.5207 6.41517 22.5691 6.99117 23.5431C7.22811 23.9438 7.16365 24.4542 6.83445 24.7834L5.76779 25.85C5.30669 26.3106 5.31872 27.0489 5.76738 27.497L7.31241 29.0421C7.76025 29.4905 8.49888 29.5037 8.95943 29.0425L10.0264 27.9754C10.269 27.7329 10.7737 27.5271 11.2668 27.8188Z" fill="black"/>
<path d="M17.4051 24.9789C13.2288 24.9789 9.83118 21.5813 9.83118 17.405C9.83118 13.2288 13.2288 9.83111 17.4051 9.83111C21.5814 9.83111 24.979 13.2288 24.979 17.405C24.979 21.5813 21.5814 24.9789 17.4051 24.9789ZM17.4051 11.8708C14.3534 11.8708 11.8708 14.3534 11.8708 17.405C11.8708 20.4566 14.3535 22.9393 17.4051 22.9393C20.4567 22.9393 22.9393 20.4566 22.9393 17.405C22.9393 14.3534 20.4567 11.8708 17.4051 11.8708Z" fill="black"/>
</svg>
