<svg width="30" height="35" viewBox="0 0 30 35" fill="none" xmlns="http://www.w3.org/2000/svg">
<path d="M14.3015 16.7681C16.6051 16.7681 18.5996 15.9419 20.2297 14.3118C21.8593 12.6819 22.6858 10.6877 22.6858 8.38381C22.6858 6.0807 21.8596 4.0862 20.2294 2.45581C18.5993 0.826217 16.6048 0 14.3015 0C11.9976 0 10.0033 0.826217 8.37346 2.45608C6.7436 4.08594 5.91711 6.08044 5.91711 8.38381C5.91711 10.6877 6.7436 12.6822 8.37346 14.3121C10.0038 15.9417 11.9983 16.7681 14.3015 16.7681ZM9.81608 3.89844C11.0667 2.64783 12.5338 2.03991 14.3015 2.03991C16.0689 2.03991 17.5362 2.64783 18.7871 3.89844C20.0377 5.14932 20.6459 6.61664 20.6459 8.38381C20.6459 10.1515 20.0377 11.6186 18.7871 12.8694C17.5362 14.1203 16.0689 14.7282 14.3015 14.7282C12.5343 14.7282 11.0672 14.1201 9.81608 12.8694C8.5652 11.6188 7.95703 10.1515 7.95703 8.38381C7.95703 6.61664 8.5652 5.14932 9.81608 3.89844Z" fill="white"/>
<path d="M28.9718 26.7672C28.9248 26.0889 28.8297 25.349 28.6897 24.5677C28.5484 23.7805 28.3665 23.0363 28.1487 22.3562C27.9235 21.6532 27.6178 20.959 27.2394 20.2937C26.8471 19.6032 26.3861 19.0019 25.8687 18.5072C25.3278 17.9895 24.6654 17.5734 23.8995 17.2698C23.1362 16.9679 22.2903 16.8149 21.3855 16.8149C21.0302 16.8149 20.6865 16.9607 20.0228 17.3928C19.6144 17.6592 19.1366 17.9672 18.6033 18.308C18.1473 18.5985 17.5296 18.8707 16.7665 19.1172C16.0221 19.3581 15.2663 19.4802 14.52 19.4802C13.7743 19.4802 13.0184 19.3581 12.2735 19.1172C11.5113 18.871 10.8933 18.5988 10.4381 18.3082C9.90982 17.9707 9.43178 17.6626 9.01721 17.3925C8.35406 16.9604 8.0104 16.8146 7.65506 16.8146C6.74996 16.8146 5.90436 16.9679 5.14135 17.2701C4.37595 17.5731 3.71333 17.9893 3.17181 18.5074C2.65446 19.0025 2.19342 19.6035 1.80142 20.2937C1.4235 20.959 1.11756 21.6529 0.892346 22.3565C0.674837 23.0366 0.492915 23.7805 0.351627 24.5677C0.211401 25.3479 0.116589 26.0881 0.0695818 26.768C0.023371 27.4327 0 28.1246 0 28.8236C0 30.6407 0.577635 32.1117 1.7167 33.1966C2.8417 34.2672 4.33 34.81 6.14046 34.81H22.9017C24.7116 34.81 26.1999 34.2672 27.3252 33.1966C28.4645 32.1125 29.0422 30.6409 29.0422 28.8233C29.0419 28.1219 29.0182 27.4301 28.9718 26.7672ZM25.9187 31.7187C25.1753 32.4262 24.1884 32.7701 22.9014 32.7701H6.14046C4.85319 32.7701 3.8663 32.4262 3.12321 31.7189C2.3942 31.025 2.03991 30.0776 2.03991 28.8236C2.03991 28.1713 2.06143 27.5273 2.10445 26.909C2.14641 26.3024 2.23219 25.6361 2.35941 24.9281C2.48502 24.2288 2.6449 23.5725 2.83506 22.9784C3.01751 22.4088 3.26636 21.8447 3.57496 21.3013C3.86949 20.7834 4.20837 20.3391 4.5823 19.9811C4.93207 19.6462 5.37293 19.3721 5.89241 19.1666C6.37284 18.9764 6.91276 18.8723 7.4989 18.8567C7.57034 18.8946 7.69755 18.9671 7.90364 19.1015C8.32299 19.3748 8.80634 19.6866 9.34069 20.0279C9.94302 20.4119 10.719 20.7587 11.6462 21.058C12.594 21.3645 13.5607 21.5202 14.5203 21.5202C15.4798 21.5202 16.4468 21.3645 17.3941 21.0583C18.322 20.7585 19.0978 20.4119 19.7009 20.0273C20.2478 19.6778 20.7176 19.3751 21.1369 19.1015C21.343 18.9674 21.4702 18.8946 21.5417 18.8567C22.1281 18.8723 22.668 18.9764 23.1487 19.1666C23.6679 19.3721 24.1088 19.6465 24.4585 19.9811C24.8325 20.3389 25.1713 20.7832 25.4659 21.3016C25.7747 21.8447 26.0238 22.409 26.206 22.9782C26.3965 23.5731 26.5566 24.2291 26.6819 24.9278C26.8089 25.6372 26.8949 26.3038 26.9369 26.9093V26.9098C26.9802 27.5257 27.002 28.1695 27.0022 28.8236C27.002 30.0779 26.6477 31.025 25.9187 31.7187Z" fill="white"/>
</svg>
