<svg width="35" height="35" viewBox="0 0 35 35" fill="none" xmlns="http://www.w3.org/2000/svg">
<path d="M26.5773 24.8389C26.7935 24.5097 26.9016 24.2786 27.0668 24.1009C27.9552 23.1467 28.8137 22.159 29.7655 21.2731C30.8837 20.2356 32.525 20.2654 33.683 21.2358C34.8409 22.2062 35.2025 23.9146 34.3129 25.152C32.515 27.6544 30.6874 30.1418 28.7379 32.5273C27.5415 33.9934 25.8256 34.7389 23.9197 34.7638C19.74 34.811 15.5579 34.8259 11.3795 34.7414C10.224 34.7178 9.07221 34.3239 7.93162 34.0518C7.57131 33.9661 7.3253 33.9549 6.96871 34.1537C6.427 34.4569 5.79707 34.719 5.18826 34.7588C3.84888 34.8482 2.49956 34.7973 1.15397 34.7874C0.389858 34.7874 0.00345129 34.401 0.00220883 33.6368C-0.00110441 29.6411 -0.000690258 25.6457 0.00345129 21.6508C0.00345129 20.9277 0.393585 20.5251 1.11173 20.5164C2.49832 20.499 3.88616 20.4928 5.2715 20.5164C6.25926 20.5363 7.0445 21.0134 7.67443 21.7912C7.82601 21.6968 7.95026 21.6297 8.06457 21.5427C10.8576 19.5287 14.3191 19.5982 16.9556 21.7912C17.6042 22.3304 18.2441 22.5963 19.0865 22.559C20.3053 22.5056 21.5304 22.5963 22.748 22.5367C24.4303 22.4671 25.7734 22.9293 26.5773 24.8389ZM17.4862 32.7137V32.7535C19.4319 32.7535 21.3784 32.7535 23.3258 32.7535C25.1895 32.7535 26.6941 32.0279 27.7986 30.5096C28.0173 30.2089 28.2459 29.9144 28.4696 29.6162C29.7816 27.8619 31.0961 26.1075 32.4132 24.3531C32.8381 23.7829 32.8418 23.3182 32.4542 22.8957C32.0181 22.4199 31.3844 22.4658 30.839 23.0486C29.4308 24.5395 28.0335 26.0379 26.6469 27.5438C26.3084 27.9232 25.8904 28.2232 25.4226 28.4225C24.9548 28.6218 24.4489 28.7155 23.9408 28.6968C21.9528 28.6782 19.9649 28.6968 17.977 28.6968C17.4178 28.6968 16.8587 28.7154 16.3009 28.6807C16.0386 28.6701 15.7905 28.5586 15.6086 28.3694C15.4266 28.1802 15.3247 27.9281 15.3243 27.6656C15.3243 27.1313 15.7182 26.7039 16.2934 26.6405C16.4791 26.6273 16.6653 26.6239 16.8513 26.6306C19.0045 26.6306 21.1564 26.6505 23.3121 26.6107C23.7113 26.5962 24.0917 26.4378 24.3831 26.1647C24.562 25.9783 24.5571 25.4962 24.4639 25.1993C24.3185 24.7358 23.8774 24.6041 23.4065 24.6041C21.7913 24.6041 20.1761 24.5818 18.5609 24.6141C17.6012 24.6437 16.6686 24.2926 15.9666 23.6375C13.6171 21.5651 10.6414 21.6682 8.45843 23.886C8.31589 24.0507 8.23468 24.2596 8.22857 24.4774C8.21366 26.8381 8.20993 29.1988 8.23603 31.5594C8.23603 31.7545 8.45222 32.0726 8.62492 32.1198C9.49464 32.3571 10.3867 32.6553 11.2801 32.6901C13.3463 32.7708 15.4175 32.7137 17.4862 32.7137ZM2.03861 22.5814C2.03861 25.9037 2.03861 29.1304 2.056 32.3559C2.056 32.4876 2.3045 32.7286 2.44862 32.7286C3.33657 32.7634 4.22618 32.7679 5.11744 32.7423C5.76973 32.7236 6.16981 32.341 6.17478 31.6775C6.193 28.988 6.193 26.2959 6.17478 23.6015C6.17478 23.0423 5.85298 22.6162 5.27523 22.5901C4.22162 22.5478 3.1705 22.5814 2.03861 22.5814Z" fill="black"/>
<path d="M10.2697 9.16525C10.3405 4.01275 14.4817 -0.0687492 19.5658 0.00082881C24.5879 0.0716493 28.6445 4.25503 28.5923 9.31932C28.5414 14.4234 24.3853 18.5533 19.3583 18.4949C16.9177 18.4573 14.5914 17.4546 12.8882 15.7062C11.1849 13.9578 10.2435 11.606 10.2697 9.16525ZM21.4084 8.17128C21.386 7.76251 21.386 7.4258 21.3463 7.10649C21.1537 5.51986 20.8977 3.94566 20.0019 2.57149C19.5733 1.91547 19.2701 1.90926 18.8601 2.57149C17.8053 4.27367 17.563 6.18458 17.4387 8.17128H21.4084ZM17.4425 10.3133C17.4723 10.7295 17.4847 11.0973 17.5269 11.4626C17.7108 13.0119 17.978 14.5402 18.844 15.882C19.2863 16.5691 19.6006 16.5803 20.0218 15.882C21.0456 14.1873 21.304 12.3012 21.4233 10.3133H17.4425ZM22.5279 2.86595C22.7354 3.68474 22.9826 4.48986 23.1354 5.31113C23.2932 6.16097 23.3553 7.02946 23.4796 7.88676C23.497 8.011 23.6635 8.18868 23.7654 8.19116C24.645 8.21601 25.5259 8.20607 26.4106 8.20607C26.2702 5.99945 24.3257 3.35549 22.5279 2.86471V2.86595ZM12.4515 8.20856C13.3398 8.20856 14.1909 8.22098 15.0283 8.19365C15.1075 8.1765 15.181 8.13976 15.2422 8.08679C15.3034 8.03382 15.3504 7.96632 15.3787 7.89048C15.6707 6.21191 15.9378 4.53583 16.2012 2.90199C14.5463 3.35549 12.5732 6.02306 12.4515 8.2011V8.20856ZM12.4515 10.2748C12.6291 12.5385 14.6581 15.2571 16.2062 15.5776C15.9465 13.986 15.6856 12.3472 15.3998 10.7034C15.3725 10.5469 15.1973 10.2984 15.083 10.2934C14.2158 10.2549 13.3523 10.271 12.4465 10.271L12.4515 10.2748ZM22.6695 15.5987C24.5245 14.8905 26.4565 12.1844 26.3783 10.2661C25.5185 10.2661 24.655 10.2537 23.7939 10.2822C23.6821 10.2822 23.5057 10.4934 23.4833 10.6276C23.1926 12.2801 22.9317 13.9413 22.6645 15.595L22.6695 15.5987Z" fill="black"/>
</svg>
