<svg width="222" height="77" viewBox="0 0 222 77" fill="none" xmlns="http://www.w3.org/2000/svg">
<path d="M78.455 10.7627H83.3073V35.4605H78.455V10.7627Z" fill="#2389DA"/>
<path d="M101.007 10.7627H105.546V35.4605H101.007V33.3785C99.67 35.0963 97.7702 35.9549 95.3078 35.9542C92.9384 35.9542 90.9152 35.0544 89.2382 33.2548C87.5613 31.4552 86.7228 29.2492 86.7228 26.6366C86.7228 24.0255 87.5613 21.8194 89.2382 20.0184C90.9152 18.2174 92.9384 17.3176 95.3078 17.3191C97.7702 17.3191 99.67 18.1776 101.007 19.8947V10.7627ZM92.6506 30.2202C93.5774 31.1496 94.7444 31.6144 96.1517 31.6144C97.5589 31.6144 98.7201 31.1496 99.6354 30.2202C100.55 29.2915 101.007 28.098 101.007 26.6399C101.007 25.1817 100.55 23.9882 99.6354 23.0595C98.7201 22.1308 97.5589 21.6664 96.1517 21.6664C94.7444 21.6664 93.5774 22.1308 92.6506 23.0595C91.7245 23.989 91.2614 25.1824 91.2614 26.6399C91.2614 28.0973 91.7245 29.2908 92.6506 30.2202Z" fill="#2389DA"/>
<path d="M113.532 28.5092C114.142 30.7204 115.795 31.8259 118.492 31.8259C120.228 31.8259 121.542 31.2379 122.434 30.0618L126.092 32.1785C124.356 34.6956 121.8 35.9542 118.422 35.9542C115.514 35.9542 113.18 35.0721 111.421 33.308C109.662 31.5438 108.782 29.3211 108.782 26.6399C108.782 23.9817 109.65 21.7648 111.385 19.9891C113.121 18.2134 115.349 17.3256 118.07 17.3256C120.651 17.3256 122.779 18.2192 124.454 20.0065C126.128 21.7937 126.967 24.0049 126.97 26.6399C126.966 27.267 126.907 27.8925 126.794 28.5092H113.532ZM113.461 24.981H122.434C122.175 23.7817 121.641 22.8881 120.832 22.3001C120.031 21.7144 119.062 21.405 118.07 21.418C116.851 21.418 115.842 21.7297 115.041 22.3532C114.24 22.9767 113.714 23.8526 113.461 24.981Z" fill="#2389DA"/>
<path d="M143.366 17.8192H147.91V35.4605H143.366V33.3785C142.006 35.0963 140.095 35.9549 137.632 35.9542C135.287 35.9542 133.275 35.0544 131.598 33.2548C129.921 31.4552 129.083 29.2492 129.083 26.6366C129.083 24.0255 129.921 21.8194 131.598 20.0184C133.275 18.2174 135.287 17.3176 137.632 17.319C140.096 17.319 142.008 18.1776 143.366 19.8947V17.8192ZM134.994 30.2202C135.908 31.1496 137.069 31.6143 138.476 31.6143C139.883 31.6143 141.05 31.1496 141.977 30.2202C142.903 29.2915 143.366 28.098 143.366 26.6398C143.366 25.1817 142.903 23.9882 141.977 23.0595C141.05 22.1308 139.883 21.6664 138.476 21.6664C137.069 21.6664 135.908 22.1308 134.994 23.0595C134.078 23.9889 133.621 25.1824 133.621 26.6398C133.621 28.0973 134.078 29.2907 134.994 30.2202Z" fill="#2389DA"/>
<path d="M152.022 35.4605V9.70486H156.566V35.4605H152.022Z" fill="#2389DA"/>
<path d="M90.1364 69.3706C86.4297 69.3706 83.3687 68.1356 80.9531 65.6655C78.5375 63.1955 77.3298 60.1489 77.3298 56.5259C77.3298 52.8805 78.5375 49.8285 80.9531 47.37C83.3687 44.9115 86.4297 43.6819 90.1364 43.6812C92.2948 43.664 94.4213 44.2047 96.3109 45.2511C98.1402 46.2423 99.6664 47.7135 100.726 49.5074L96.5392 51.9409C95.9371 50.8443 95.0336 49.9443 93.9361 49.3479C92.8094 48.7251 91.5429 48.4137 90.1364 48.4137C87.7432 48.4137 85.8138 49.1663 84.3481 50.6715C82.8825 52.1767 82.1497 54.1282 82.1497 56.5259C82.1497 58.902 82.8825 60.8426 84.3481 62.3478C85.8138 63.8529 87.7432 64.6055 90.1364 64.6055C91.4673 64.6244 92.7811 64.3025 93.9534 63.6703C95.0471 63.0907 95.9464 62.2009 96.5392 61.112L100.726 63.5488C99.6691 65.3377 98.1495 66.8068 96.3282 67.8007C94.4514 68.8481 92.3875 69.3714 90.1364 69.3706Z" fill="#2389DA"/>
<path d="M103.787 68.877V43.1213H108.331V68.877H103.787Z" fill="#2389DA"/>
<path d="M116.312 61.9257C116.922 64.1368 118.575 65.2424 121.273 65.2424C123.008 65.2424 124.321 64.6544 125.213 63.4783L128.872 65.595C127.135 68.1121 124.579 69.3706 121.202 69.3706C118.293 69.3706 115.959 68.4886 114.2 66.7244C112.442 64.9603 111.562 62.7376 111.562 60.0563C111.562 57.3982 112.43 55.1813 114.166 53.4056C115.901 51.6299 118.129 50.742 120.85 50.742C123.429 50.742 125.557 51.6357 127.233 53.4229C128.909 55.2102 129.748 57.4213 129.748 60.0563C129.744 60.6834 129.685 61.309 129.572 61.9257H116.312ZM116.242 58.3974H125.213C124.955 57.1989 124.421 56.3053 123.612 55.7165C122.811 55.1311 121.842 54.8217 120.851 54.8345C119.63 54.8345 118.62 55.1462 117.821 55.7697C117.022 56.3932 116.496 57.2691 116.242 58.3974Z" fill="#2389DA"/>
<path d="M146.146 51.2357H150.69V68.8769H146.146V66.7949C144.786 68.5128 142.874 69.3713 140.412 69.3706C138.066 69.3706 136.055 68.4708 134.378 66.6712C132.701 64.8717 131.863 62.6656 131.863 60.0531C131.863 57.4419 132.701 55.2359 134.378 53.4349C136.055 51.6338 138.066 50.7341 140.412 50.7355C142.874 50.7355 144.786 51.5941 146.146 53.3112V51.2357ZM137.773 63.6366C138.687 64.5668 139.848 65.0315 141.256 65.0308C142.664 65.0301 143.832 64.5654 144.76 63.6366C145.686 62.7079 146.149 61.5145 146.149 60.0563C146.149 58.5981 145.686 57.4047 144.76 56.476C143.833 55.5473 142.666 55.0829 141.259 55.0829C139.852 55.0829 138.691 55.5473 137.776 56.476C136.861 57.4061 136.404 58.5996 136.404 60.0563C136.405 61.513 136.861 62.7065 137.773 63.6366Z" fill="#2389DA"/>
<path d="M164.582 50.742C166.505 50.742 168.094 51.3887 169.348 52.6819C170.603 53.9752 171.23 55.7628 171.231 58.0448V68.877H166.687V58.6101C166.687 57.434 166.37 56.5342 165.737 55.9107C165.104 55.2873 164.26 54.9755 163.204 54.9755C162.031 54.9755 161.094 55.3401 160.391 56.0691C159.689 56.7982 159.338 57.8908 159.34 59.3468V68.8726H154.796V51.2357H159.34V53.2114C160.439 51.5652 162.186 50.742 164.582 50.742Z" fill="#2389DA"/>
<path d="M177.353 49.1189C176.618 49.1071 175.918 48.8091 175.399 48.288C174.88 47.7669 174.584 47.0636 174.573 46.3273C174.571 45.9591 174.644 45.5943 174.786 45.2547C174.928 44.9152 175.137 44.608 175.401 44.3516C175.649 44.083 175.951 43.869 176.286 43.7232C176.621 43.5773 176.983 43.5028 177.348 43.5043C177.72 43.4997 178.089 43.5727 178.431 43.7186C178.774 43.8644 179.082 44.08 179.337 44.3516C179.6 44.6083 179.809 44.9155 179.951 45.255C180.093 45.5945 180.165 45.9592 180.163 46.3273C180.166 46.6921 180.093 47.0535 179.951 47.3893C179.809 47.7252 179.6 48.0283 179.337 48.2802C179.081 48.5484 178.772 48.7612 178.431 48.9054C178.09 49.0496 177.723 49.1223 177.353 49.1189ZM175.101 68.877V51.2357H179.645V68.877H175.101Z" fill="#2389DA"/>
<path d="M193.572 50.742C195.495 50.742 197.085 51.3887 198.34 52.6819C199.595 53.9752 200.222 55.7628 200.221 58.0448V68.877H195.684V58.6101C195.684 57.434 195.367 56.5342 194.734 55.9107C194.1 55.2873 193.256 54.9755 192.2 54.9755C191.027 54.9755 190.089 55.3401 189.387 56.0691C188.684 56.7982 188.332 57.8908 188.33 59.3468V68.8726H183.786V51.2357H188.33V53.2114C189.433 51.5652 191.18 50.742 193.572 50.742Z" fill="#2389DA"/>
<path d="M217.566 51.2357H222.002V68.0264C222.002 70.7546 221.105 72.8363 219.31 74.2713C217.516 75.7064 215.352 76.4239 212.819 76.4239C210.919 76.4239 209.248 76.0593 207.805 75.3302C206.393 74.6294 205.232 73.5076 204.48 72.1188L208.35 69.8968C209.241 71.543 210.776 72.3662 212.957 72.3662C214.388 72.3662 215.513 71.9897 216.335 71.2367C217.157 70.4838 217.567 69.4136 217.566 68.0264V66.1244C216.23 67.9124 214.354 68.8064 211.94 68.8064C209.454 68.8064 207.372 67.9302 205.695 66.1776C204.018 64.4251 203.18 62.2913 203.18 59.7764C203.18 57.2832 204.024 55.1545 205.713 53.3904C207.401 51.6263 209.477 50.7442 211.94 50.7442C214.356 50.7442 216.231 51.6378 217.566 53.4251V51.2357ZM209.105 63.2526C210.032 64.1589 211.211 64.6117 212.641 64.6109C214.072 64.6102 215.25 64.1574 216.177 63.2526C217.103 62.3463 217.566 61.189 217.566 59.7807C217.566 58.3927 217.103 57.2459 216.177 56.3404C215.251 55.4348 214.072 54.982 212.641 54.982C211.21 54.982 210.031 55.4348 209.105 56.3404C208.178 57.2459 207.715 58.3927 207.715 59.7807C207.715 61.1883 208.178 62.3456 209.105 63.2526Z" fill="#2389DA"/>
<path d="M56.346 36.7906C55.5305 34.0943 54.2166 31.5757 52.4728 29.3663C54.4614 32.0061 55.9134 35.0119 56.7463 38.213C56.6241 37.7389 56.4932 37.2637 56.346 36.7906Z" fill="#2389DA"/>
<path d="M42.3991 17.4004C43.346 17.4116 44.2586 17.0452 44.9361 16.3817C45.6136 15.7181 46.0005 14.8119 46.0116 13.8624C46.0228 12.9128 45.6574 11.9977 44.9958 11.3183C44.3341 10.6389 43.4304 10.2509 42.4835 10.2397C40.4744 10.2017 38.9251 11.7695 38.9316 13.8352C38.937 15.8402 40.4279 17.3744 42.3991 17.4004Z" fill="#2389DA"/>
<path d="M55.7184 21.9257C53.9646 20.0303 51.8235 19.9609 50.0081 21.7662L49.9832 21.7912C49.6788 22.0943 49.4378 22.4553 49.2742 22.853C49.1107 23.2506 49.0278 23.677 49.0305 24.1072C49.0332 24.5374 49.1215 24.9627 49.2901 25.3582C49.4587 25.7538 49.7042 26.1117 50.0124 26.4109C50.9553 27.3274 51.8263 28.3155 52.6177 29.3663C54.3626 31.5754 55.6776 34.094 56.4941 36.7906C56.6413 37.2637 56.7733 37.7389 56.8923 38.213C60.0147 50.6433 53.6054 63.3144 41.567 68.1348C26.8054 74.0532 9.81716 64.3375 7.45317 48.5699C7.25322 47.2558 7.14477 45.9293 7.1286 44.6001C7.04746 37.0933 10.1298 30.7127 15.8358 25.2164C22.2278 19.0539 28.4109 12.6743 34.6828 6.38706C36.244 4.82148 36.3522 2.54851 34.9349 1.08491C34.6127 0.747938 34.2267 0.478765 33.7996 0.29313C33.3724 0.107496 32.9126 0.00912508 32.4471 0.00377103C31.9816 -0.00158302 31.5197 0.0861868 31.0884 0.261948C30.6572 0.43771 30.2652 0.697935 29.9353 1.02741C22.3619 8.63074 14.6804 16.131 7.37528 23.9839C2.7436 28.9605 0.649021 35.25 0.108064 42.0591C-1.2822 59.337 11.3167 74.0923 27.3972 76.617C44.262 79.2664 60.9365 67.869 64.1162 51.0653C66.213 39.9728 63.4 30.2256 55.7184 21.9257ZM32.7299 69.989H32.5752C32.6834 69.989 32.7916 69.989 32.8998 69.989C32.8489 69.9857 32.7916 69.989 32.7342 69.989H32.7299ZM57.7037 45.3346C57.7037 45.455 57.694 45.5744 57.6897 45.6937C57.6897 45.5668 57.7005 45.4398 57.7037 45.3129V45.3346Z" fill="#2389DA"/>
<path d="M52.3745 29.2448C52.4059 29.286 52.4383 29.3251 52.4697 29.3663C52.4373 29.3262 52.407 29.285 52.3745 29.2448Z" fill="#2389DA"/>
<path d="M50.219 44.6294C50.219 44.8464 50.2103 45.071 50.2017 45.2901C50.2114 45.071 50.2179 44.8507 50.219 44.6294Z" fill="#2389DA"/>
<path d="M44.3799 31.3485C43.8078 30.8201 43.0538 30.5342 42.2762 30.5508C41.4985 30.5674 40.7573 30.8851 40.2081 31.4375L40.1886 31.457C38.4186 33.2461 38.4143 35.1871 40.1194 37.0217C43.3803 40.5326 44.0435 45.3943 41.832 49.5941C39.7623 53.5227 35.1815 55.9389 30.961 55.3259C26.1162 54.624 22.4658 51.2031 21.5732 46.4847C20.8613 42.721 21.9562 39.4813 24.6026 36.7809C27.884 33.4349 31.2282 30.1518 34.527 26.8221L34.567 26.7798C36.5469 24.7358 36.0416 21.7424 33.5294 20.754C32.1565 20.2115 30.8246 20.4187 29.7676 21.4711C26.0123 25.2142 22.0947 28.8206 18.6088 32.8056C14.4629 37.5479 13.2446 43.1126 14.8469 48.9714C14.9191 49.2383 14.9973 49.5059 15.0817 49.7742C14.9973 49.5059 14.9191 49.2383 14.8469 48.9714C15.2406 50.562 15.8512 52.0907 16.6613 53.514C16.4785 53.1788 16.3075 52.8316 16.1409 52.479C16.3075 52.8316 16.4785 53.1788 16.6613 53.514C17.1231 54.3269 17.6472 55.1024 18.229 55.8337C17.6472 55.1024 17.1231 54.3269 16.6613 53.514C18.2268 56.3892 20.4004 58.6035 23.1376 60.1236C22.6735 59.8491 22.2245 59.5518 21.7896 59.2372C22.2223 59.5518 22.6735 59.8491 23.1376 60.1236C25.8148 61.7106 28.8573 62.5727 31.9668 62.6253C35.0763 62.6778 38.146 61.919 40.8749 60.4232C43.6038 58.9275 45.8982 56.7462 47.5331 54.0932C49.168 51.4403 50.0872 48.4067 50.2006 45.2901C50.2093 45.0731 50.218 44.8507 50.218 44.6294C50.2208 42.1301 49.7029 39.6577 48.6976 37.3707C47.6923 35.0837 46.2217 33.0325 44.3799 31.3485ZM19.4743 57.243C20.0619 57.8425 20.6902 58.4004 21.3547 58.9128C20.6902 58.4004 20.0619 57.8425 19.4743 57.243Z" fill="#2389DA"/>
</svg>
