<svg width="35" height="35" viewBox="0 0 35 35" fill="none" xmlns="http://www.w3.org/2000/svg">
<path d="M0.00912549 23.7079C0.00912549 20.703 0.0293703 17.698 0.000268387 14.6944C-0.0149152 13.0567 0.613939 11.8062 1.93871 10.8566C6.71985 7.41542 11.493 3.96278 16.2581 0.498706C17.1653 -0.157631 17.6183 -0.163979 18.4901 0.466968C23.2451 3.90734 27.9912 7.36295 32.7614 10.7817C34.171 11.7973 34.8175 13.0999 34.8099 14.8289C34.7846 20.8172 34.8011 26.8068 34.7998 32.795C34.7998 34.2461 34.2532 34.8072 32.831 34.8072C29.3084 34.8072 25.7854 34.8072 22.262 34.8072C20.9967 34.8072 20.45 34.2664 20.4462 32.9956C20.4399 30.7105 20.469 28.4254 20.4285 26.1403C20.4007 24.5966 19.3328 23.4324 17.8132 23.1595C16.3973 22.9056 14.9397 23.652 14.407 24.9914C14.2194 25.5053 14.1247 26.0487 14.1273 26.596C14.0957 28.7123 14.116 30.8286 14.1134 32.9436C14.1134 34.2994 13.5984 34.8085 12.2319 34.8085C8.77344 34.8085 5.31495 34.8085 1.85646 34.8085C0.521572 34.8085 0.0129214 34.3007 0.0116561 32.9791C0.00828195 29.8883 0.00743842 26.7979 0.00912549 23.7079ZM23.4172 31.914H24.1953C26.4729 31.914 28.7504 31.8886 31.028 31.9305C31.6821 31.9432 31.8327 31.7464 31.8302 31.1117C31.8048 25.6528 31.8048 20.1939 31.8302 14.735C31.8302 14.0457 31.5771 13.5924 31.0317 13.1925C26.6192 9.9993 22.2143 6.79463 17.817 3.57854C17.4563 3.31448 17.2337 3.33733 16.887 3.58869C12.4964 6.77686 8.0965 9.95317 3.68735 13.1176C3.14201 13.5099 2.88136 13.9669 2.88389 14.655C2.9016 20.1139 2.89401 25.5728 2.89527 31.0317C2.89527 31.2793 2.91678 31.5268 2.9307 31.8099H11.2943V31.0812C11.2943 29.4512 11.2475 27.8198 11.3083 26.1936C11.3994 23.7155 12.5736 21.8531 14.8068 20.802C17.0198 19.761 19.1746 20.0301 21.1093 21.5459C22.6491 22.7532 23.402 24.3871 23.4184 26.3459C23.4349 28.1664 23.4222 29.9831 23.4222 31.914H23.4172Z" fill="black"/>
</svg>
